<?xml version="1.0" standalone="no"?>
<!DOCTYPE svg PUBLIC "-//W3C//DTD SVG 20010904//EN"
 "http://www.w3.org/TR/2001/REC-SVG-20010904/DTD/svg10.dtd">
<svg version="1.0" xmlns="http://www.w3.org/2000/svg"
 width="546.000000pt" height="396.000000pt" viewBox="0 0 546.000000 396.000000"
 preserveAspectRatio="xMidYMid meet">

<g transform="translate(0.000000,396.000000) scale(0.100000,-0.100000)"
fill="#000000" stroke="none">
<path d="M0 1980 l0 -1980 2730 0 2730 0 0 1980 0 1980 -2730 0 -2730 0 0
-1980z m642 1908 c57 -24 122 -92 150 -155 27 -60 22 -178 -10 -239 -32 -63
-114 -131 -180 -150 -230 -67 -448 178 -348 391 74 159 230 221 388 153z m532
-4 c8 -3 20 -21 27 -41 10 -31 9 -37 -12 -59 -28 -29 -58 -31 -93 -3 -31 25
-33 47 -5 83 20 25 50 33 83 20z m240 -16 c34 -48 8 -108 -46 -108 -35 0 -68
32 -68 65 0 57 83 88 114 43z m942 -848 c56 -22 53 22 54 -887 l0 -842 -24
-28 -24 -28 -872 -3 -872 -2 -164 162 -164 162 0 706 c0 766 -2 738 54 760 31
13 1978 12 2012 0z m1382 -497 c2 -9 -5 -11 -27 -7 -24 5 -31 3 -31 -9 0 -9
11 -17 26 -19 31 -3 50 -28 41 -52 -7 -18 -87 -23 -87 -5 0 7 11 8 30 4 26 -6
30 -4 30 14 0 14 -8 21 -27 23 -28 3 -40 25 -29 54 7 18 67 15 74 -3z m412 7
c0 -5 -7 -10 -16 -10 -8 0 -12 5 -9 10 3 6 10 10 16 10 5 0 9 -4 9 -10z m338
-53 c2 -35 -1 -57 -8 -57 -10 0 -14 26 -11 63 1 9 -4 17 -13 17 -19 0 -21 11
-4 28 22 22 33 6 36 -51z m96 47 c7 -17 -5 -44 -28 -64 -23 -18 -20 -28 12
-33 16 -2 9 -5 -20 -6 -57 -1 -62 13 -18 48 36 28 40 53 8 51 -34 -3 -40 -1
-33 10 10 16 72 12 79 -6z m66 -44 c0 -33 -4 -60 -10 -60 -5 0 -10 20 -10 45
0 35 -3 43 -15 39 -18 -7 -20 7 -3 24 27 27 38 13 38 -48z m-859 31 c17 -16
18 -19 5 -24 -21 -8 -20 -44 2 -56 15 -9 13 -10 -9 -11 -24 0 -27 4 -31 38 -3
39 0 72 8 72 3 0 14 -8 25 -19z m590 2 c1 -17 2 -17 6 0 2 9 8 17 13 17 12 0
21 -45 9 -49 -8 -2 -8 -6 -1 -10 6 -4 3 -15 -9 -30 -16 -20 -19 -21 -19 -5 0
17 -1 17 -12 1 -12 -15 -14 -15 -25 8 -6 14 -7 25 -2 25 4 0 6 7 3 15 -4 8 -1
15 5 15 6 0 11 7 11 15 0 21 20 19 21 -2z m-497 -9 c11 -4 16 -19 16 -46 l0
-39 -37 3 c-30 2 -38 7 -38 23 0 13 8 21 23 23 27 4 29 22 2 22 -11 0 -20 5
-20 10 0 11 30 13 54 4z m224 -41 c2 -26 -1 -43 -7 -43 -6 0 -11 16 -11 35 0
24 -5 35 -15 35 -10 0 -15 -11 -15 -35 0 -44 -18 -46 -22 -3 -4 46 -28 49 -28
4 0 -20 -4 -36 -10 -36 -5 0 -10 16 -10 35 0 31 -3 34 -22 31 -18 -2 -24 -11
-26 -34 -5 -48 -22 -38 -22 12 l0 44 93 -1 92 -2 3 -42z m42 -4 c0 -21 -4 -39
-10 -39 -5 0 -10 21 -10 46 0 27 4 43 10 39 6 -3 10 -24 10 -46z m74 45 c9 -3
16 -17 16 -30 0 -20 -5 -24 -31 -24 -18 0 -28 -4 -24 -10 4 -6 15 -8 25 -5 10
3 21 1 25 -5 4 -6 -9 -10 -34 -10 -41 0 -41 0 -41 38 0 21 3 42 7 45 8 9 36 9
57 1z m-438 -222 l16 -37 19 43 c10 23 22 42 27 42 11 0 18 -51 14 -98 -4 -41
-22 -32 -23 11 l-1 32 -11 -32 c-16 -44 -29 -45 -49 -3 l-17 35 -1 -37 c0 -21
-4 -38 -10 -38 -11 0 -14 113 -4 123 11 11 23 -2 40 -41z m518 27 c-3 -5 -10
-7 -15 -3 -5 3 -7 10 -3 15 3 5 10 7 15 3 5 -3 7 -10 3 -15z m-205 -33 c-12
-13 -11 -56 1 -56 6 0 10 -4 10 -10 0 -11 -39 -14 -41 -2 -1 4 -3 20 -5 36 -1
15 -5 31 -8 33 -3 3 -1 14 5 25 10 19 11 19 29 1 10 -11 14 -22 9 -27z m-191
-24 c5 -46 32 -43 32 3 0 19 5 35 10 35 6 0 10 -28 10 -65 l0 -65 -35 0 c-19
0 -35 5 -35 10 0 6 11 10 25 10 14 0 25 5 25 10 0 6 -8 10 -18 10 -27 0 -42
20 -42 58 0 43 24 38 28 -6z m132 24 c0 -8 -9 -12 -22 -11 -13 1 -15 0 -6 -2
29 -7 42 -31 28 -49 -15 -17 -61 -15 -68 4 -3 9 3 11 22 6 16 -4 26 -2 26 5 0
6 -9 11 -19 11 -23 0 -35 15 -27 35 7 19 66 20 66 1z m158 -13 c3 -19 -1 -23
-22 -23 -14 0 -28 -4 -31 -10 -4 -6 7 -10 26 -10 24 0 30 -3 22 -11 -6 -6 -23
-9 -39 -7 -26 3 -29 7 -32 46 l-3 43 38 -3 c31 -2 39 -7 41 -25z m72 17 c0 -5
-6 -10 -14 -10 -9 0 -16 -12 -18 -32 -4 -47 -22 -40 -26 10 -3 41 -2 42 27 42
17 0 31 -4 31 -10z m30 -36 c0 -27 -4 -43 -10 -39 -5 3 -10 24 -10 46 0 21 5
39 10 39 6 0 10 -21 10 -46z m88 4 c-3 -39 -6 -43 -31 -46 -31 -4 -47 23 -39
65 4 19 11 23 39 23 34 0 34 0 31 -42z m42 7 c0 -24 5 -35 15 -35 10 0 15 11
15 35 0 19 5 35 10 35 6 0 10 -16 10 -35 0 -19 0 -38 0 -42 0 -5 -15 -8 -32
-8 -32 0 -33 2 -36 43 -2 25 1 42 7 42 6 0 11 -16 11 -35z m145 -2 c2 -18 -3
-37 -11 -44 -16 -13 -56 -8 -62 9 -3 9 3 11 22 6 16 -4 26 -2 26 5 0 6 -9 11
-19 11 -24 0 -35 15 -27 36 4 10 16 14 37 12 28 -3 32 -7 34 -35z m-935 -478
l0 -115 -165 0 -165 0 0 108 c0 60 3 112 7 115 3 4 78 7 165 7 l158 0 0 -115z
m350 0 l0 -115 -165 0 -165 0 0 115 0 115 165 0 165 0 0 -115z m350 0 l0 -115
-165 0 -165 0 0 115 0 115 165 0 165 0 0 -115z m350 0 l0 -115 -165 0 -165 0
0 115 0 115 165 0 165 0 0 -115z m338 -2 l3 -113 -161 0 -160 0 0 115 0 116
158 -3 157 -3 3 -112z m-1388 -248 l0 -115 -162 2 -163 3 -3 113 -3 112 166 0
165 0 0 -115z m350 0 l0 -115 -165 0 -165 0 0 115 0 115 165 0 165 0 0 -115z
m350 0 l0 -115 -165 0 -165 0 0 115 0 115 165 0 165 0 0 -115z m352 99 c2 -9
2 -61 0 -115 l-3 -99 -165 0 -164 0 0 115 0 115 164 0 c144 0 165 -2 168 -16z
m336 -96 l-3 -113 -157 -3 -158 -3 0 116 0 115 160 0 161 0 -3 -112z m-1383
-498 l0 -115 -170 0 -170 0 -3 104 c-1 58 0 111 2 118 4 11 40 13 173 11 l168
-3 0 -115z m357 113 c6 -32 4 -202 -4 -215 -8 -16 -27 -18 -173 -18 l-165 0 0
120 0 120 170 0 c94 0 171 -3 172 -7z m972 -104 c39 -18 59 -96 33 -130 -14
-19 -63 -46 -53 -30 4 6 0 11 -9 11 -9 0 -13 -4 -10 -10 8 -13 -6 -13 -39 0
-32 12 -58 62 -50 95 7 30 58 75 84 75 11 0 30 -5 44 -11z m-3456 -341 c8 -8
12 -63 12 -183 0 -120 -4 -175 -12 -183 -17 -17 -829 -17 -846 0 -17 17 -17
349 0 366 17 17 829 17 846 0z"/>
<path d="M420 3854 c-28 -15 -59 -45 -80 -76 -32 -47 -35 -56 -35 -127 0 -94
27 -148 98 -199 39 -28 60 -35 111 -39 78 -7 126 8 178 55 125 113 104 312
-41 389 -64 33 -168 32 -231 -3z m221 -7 c25 -14 59 -44 78 -72 32 -44 35 -54
36 -119 0 -60 -4 -78 -27 -117 -39 -67 -107 -109 -173 -109 -82 0 -112 10
-160 52 -62 55 -79 90 -79 168 0 72 17 110 71 162 64 62 174 77 254 35z"/>
<path d="M1222 2931 c-8 -4 -12 -19 -10 -32 2 -19 9 -24 33 -24 33 0 45 25 25
50 -14 17 -29 19 -48 6z"/>
<path d="M1442 2931 c-8 -4 -12 -19 -10 -32 4 -33 53 -40 63 -9 11 36 -22 61
-53 41z"/>
<path d="M515 2765 l-25 -24 0 -534 c0 -525 0 -535 21 -561 l20 -26 833 0 833
0 19 21 c18 20 19 46 22 556 l3 534 -30 30 -29 29 -822 0 -821 0 -24 -25z
m1689 -16 l26 -31 0 -517 c0 -509 0 -519 -21 -545 l-20 -26 -824 0 -824 0 -20
26 c-21 26 -21 36 -21 551 l0 524 25 24 24 25 815 0 814 0 26 -31z"/>
<path d="M1743 2577 c-12 -7 -58 -46 -103 -87 -106 -97 -106 -96 -125 -63
l-16 28 5 -30 c3 -19 -2 -37 -12 -50 -17 -20 -17 -20 4 -2 32 27 77 19 53 -9
-8 -10 -1 -18 30 -33 22 -12 42 -25 46 -31 3 -5 14 -10 23 -10 15 1 15 2 -2
15 -20 15 -29 51 -18 70 3 5 7 20 8 33 2 13 8 30 14 37 7 8 9 18 6 23 -6 10
40 23 48 14 3 -2 -2 -15 -11 -28 -14 -22 -14 -24 1 -18 9 3 19 17 22 30 3 13
10 24 15 24 6 0 5 -9 -1 -21 -7 -11 -10 -23 -7 -25 5 -5 52 82 62 115 5 15 3
21 -3 17 -6 -3 -12 -2 -14 3 -2 6 -12 5 -25 -2z m-18 -46 c3 -5 2 -12 -3 -15
-5 -3 -9 1 -9 9 0 17 3 19 12 6z m-115 -111 c0 -5 -5 -10 -11 -10 -5 0 -7 5
-4 10 3 6 8 10 11 10 2 0 4 -4 4 -10z m4 -89 c-6 -6 -34 20 -34 32 0 6 8 2 19
-9 10 -10 17 -21 15 -23z"/>
<path d="M1480 2493 c0 -5 4 -14 9 -21 6 -10 10 -9 14 7 3 14 0 21 -9 21 -8 0
-14 -3 -14 -7z"/>
<path d="M1368 2463 c5 -21 7 -23 10 -9 2 10 0 22 -6 28 -6 6 -7 0 -4 -19z"/>
<path d="M1096 2465 c3 -11 8 -29 9 -40 2 -11 6 -39 10 -61 5 -29 3 -44 -6
-49 -9 -6 -11 -3 -6 9 4 9 3 15 -2 12 -5 -3 -12 6 -15 20 -4 15 -9 24 -11 22
-4 -4 23 -97 30 -106 2 -2 18 6 36 17 18 11 36 18 41 15 13 -8 9 10 -8 34 -9
13 -13 29 -10 37 3 8 -5 25 -17 37 -12 13 -30 34 -40 48 -14 19 -17 20 -11 5z
m41 -70 c6 -14 8 -25 4 -25 -4 0 -13 11 -19 25 -6 14 -8 25 -4 25 4 0 12 -11
19 -25z"/>
<path d="M1250 2466 c0 -8 -3 -23 -6 -33 -3 -10 2 -7 10 7 18 30 20 40 6 40
-5 0 -10 -6 -10 -14z"/>
<path d="M1222 2394 c-9 -16 -12 -16 -29 -4 -10 8 -7 2 7 -13 l25 -28 7 27 c9
33 4 42 -10 18z"/>
<path d="M1381 2394 c0 -11 3 -14 6 -6 3 7 2 16 -1 19 -3 4 -6 -2 -5 -13z"/>
<path d="M1320 2270 c0 -5 -6 -7 -14 -4 -10 4 -14 -1 -13 -15 1 -20 1 -20 27
2 14 12 27 23 29 25 2 1 -3 2 -12 2 -9 0 -17 -4 -17 -10z"/>
<path d="M1263 2225 c-3 -9 -3 -18 -1 -21 3 -3 8 4 11 16 6 23 -1 27 -10 5z"/>
<path d="M1399 2235 c-3 -50 -3 -85 1 -85 14 1 27 17 27 35 0 20 -26 68 -28
50z"/>
<path d="M1510 2207 c0 -19 4 -25 15 -21 8 4 15 10 15 14 0 4 -7 13 -15 20
-13 11 -15 8 -15 -13z"/>
<path d="M1640 2182 c0 -7 -9 -12 -19 -12 -11 0 -23 -4 -26 -10 -3 -6 5 -10
18 -10 23 0 45 26 32 38 -3 3 -5 0 -5 -6z"/>
<path d="M1243 2155 c-6 -7 -9 -16 -6 -19 12 -12 -13 -6 -26 7 -11 10 -12 8
-3 -8 6 -11 25 -33 44 -50 25 -23 28 -24 10 -4 -12 14 -22 28 -22 31 0 11 39
16 43 5 2 -8 5 -8 10 0 3 5 -4 19 -16 31 -18 16 -24 18 -34 7z"/>
<path d="M1454 2162 c-9 -5 -8 -11 2 -20 12 -11 14 -9 14 8 0 22 0 23 -16 12z"/>
<path d="M1104 2149 c-3 -5 9 -9 25 -9 17 0 31 2 31 4 0 8 -51 13 -56 5z"/>
<path d="M1555 2150 c-3 -6 1 -7 9 -4 18 7 21 14 7 14 -6 0 -13 -4 -16 -10z"/>
<path d="M1356 2131 c-3 -5 1 -11 9 -15 8 -3 15 -17 15 -31 0 -14 5 -25 11
-25 6 0 8 9 4 20 -4 11 -2 20 4 20 6 0 2 9 -9 20 -22 22 -26 24 -34 11z"/>
<path d="M1181 2074 c0 -11 3 -14 6 -6 3 7 2 16 -1 19 -3 4 -6 -2 -5 -13z"/>
<path d="M1719 2086 c-2 -2 -33 -6 -68 -9 -61 -6 -96 -17 -54 -17 18 0 23 -10
32 -63 6 -35 11 -71 11 -79 0 -10 11 -17 29 -20 17 -2 28 -1 25 4 -3 4 2 8 10
8 9 0 16 -4 16 -8 0 -10 129 -31 148 -25 19 8 14 24 -8 30 -11 3 -20 8 -20 12
0 4 -19 18 -42 31 -46 25 -159 102 -155 106 1 1 31 5 66 8 56 6 63 5 57 -9 -3
-9 -2 -13 4 -10 6 3 10 15 10 26 0 14 -7 19 -28 19 -16 0 -31 -2 -33 -4z m10
-120 c9 -11 9 -15 -1 -20 -7 -3 -3 -3 9 -1 12 3 24 1 28 -5 4 -6 -5 -10 -22
-11 l-28 -1 30 -7 c25 -6 27 -8 11 -14 -26 -10 -49 11 -42 39 4 13 1 24 -7 27
-7 4 -8 6 -1 6 6 1 17 -5 23 -13z"/>
<path d="M1013 2065 c0 -8 4 -15 9 -15 4 0 8 3 8 8 0 4 20 6 45 4 25 -2 45 -8
45 -12 0 -4 -45 -38 -100 -74 -56 -37 -98 -71 -95 -76 3 -6 -1 -7 -9 -4 -9 3
-16 1 -16 -6 0 -6 -5 -8 -12 -4 -7 4 -8 3 -4 -4 9 -14 65 -16 85 -3 12 7 12
13 3 24 -15 17 3 34 68 67 l44 23 -27 -37 c-26 -34 -27 -36 -8 -36 28 0 27
-18 -1 -23 -13 -2 -3 -4 22 -4 l46 0 12 86 c6 47 10 86 9 87 -1 0 -29 4 -63 7
-49 5 -61 4 -61 -8z m-43 -169 c0 -2 -7 -7 -16 -10 -8 -3 -12 -2 -9 4 6 10 25
14 25 6z"/>
<path d="M1507 2063 c-9 -15 1 -40 19 -47 11 -4 12 -1 6 12 -5 9 -11 24 -14
32 -3 9 -7 10 -11 3z"/>
<path d="M1210 2005 c-10 -12 -10 -19 -2 -27 9 -9 12 -9 12 -1 0 6 7 19 16 27
13 13 13 16 1 16 -8 0 -20 -7 -27 -15z"/>
<path d="M1485 1990 c10 -11 20 -20 23 -20 3 0 -3 9 -13 20 -10 11 -20 20 -23
20 -3 0 3 -9 13 -20z"/>
<path d="M1535 1990 c-3 -5 -1 -10 4 -10 6 0 11 5 11 10 0 6 -2 10 -4 10 -3 0
-8 -4 -11 -10z"/>
<path d="M1311 1916 c-1 -11 -8 -27 -17 -37 -15 -17 -15 -19 0 -34 9 -9 16
-12 16 -6 0 6 9 11 20 11 15 0 20 -7 20 -27 0 -16 3 -39 7 -52 4 -17 3 -22 -5
-17 -7 4 -12 2 -12 -4 0 -6 7 -13 17 -17 17 -7 39 16 81 83 l23 37 -21 14
c-11 8 -32 27 -45 41 -25 26 -25 26 -25 4 0 -30 -37 -30 -50 1 -8 19 -9 20 -9
3z m70 -58 c-3 -21 -6 -26 -9 -15 -3 17 3 47 11 47 2 0 1 -15 -2 -32z m54 -17
c0 -8 -6 -16 -14 -19 -10 -3 -12 0 -8 11 3 9 1 18 -6 21 -7 3 -3 5 8 3 11 -1
20 -9 20 -16z m-35 -41 c-12 -8 -12 -10 -1 -10 8 0 12 -3 8 -6 -9 -9 -28 6
-22 17 4 5 12 9 18 9 7 0 6 -4 -3 -10z m-12 -45 c-3 -3 -9 2 -12 12 -6 14 -5
15 5 6 7 -7 10 -15 7 -18z"/>
<path d="M1671 1754 c0 -11 3 -14 6 -6 3 7 2 16 -1 19 -3 4 -6 -2 -5 -13z"/>
<path d="M693 1505 c-27 -19 -46 -77 -38 -115 9 -41 58 -80 102 -80 47 0 103
54 103 99 0 39 -24 87 -49 101 -29 15 -93 12 -118 -5z"/>
<path d="M1640 1510 c0 -5 6 -10 13 -10 141 -5 503 2 505 10 3 7 -85 10 -257
10 -167 0 -261 -4 -261 -10z"/>
<path d="M1653 1453 c-44 -18 13 -23 248 -23 204 0 260 3 257 13 -4 9 -64 12
-249 14 -134 1 -250 -1 -256 -4z"/>
<path d="M1640 1375 c0 -13 33 -15 257 -13 194 2 257 6 261 16 3 9 -53 12
-257 12 -227 0 -261 -2 -261 -15z"/>
<path d="M1647 1324 c-4 -4 -7 -11 -7 -16 0 -4 117 -8 261 -8 204 0 260 3 257
13 -4 9 -65 13 -254 15 -138 1 -253 -1 -257 -4z"/>
<path d="M3850 2440 c0 -5 4 -10 9 -10 6 0 13 5 16 10 3 6 -1 10 -9 10 -9 0
-16 -4 -16 -10z"/>
<path d="M4180 2480 c0 -5 7 -10 15 -10 8 0 15 5 15 10 0 6 -7 10 -15 10 -8 0
-15 -4 -15 -10z"/>
<path d="M4148 2258 c9 -9 15 -9 24 0 9 9 7 12 -12 12 -19 0 -21 -3 -12 -12z"/>
<path d="M4340 2245 c0 -16 6 -25 15 -25 9 0 15 9 15 25 0 16 -6 25 -15 25 -9
0 -15 -9 -15 -25z"/>
<path d="M4528 2263 c6 -2 18 -2 25 0 6 3 1 5 -13 5 -14 0 -19 -2 -12 -5z"/>
<path d="M4741 1538 c-1 -34 3 -58 9 -58 6 0 10 8 8 18 -2 11 4 18 20 20 17 3
22 -2 22 -17 0 -12 5 -21 10 -21 6 0 10 23 10 50 0 28 -4 50 -10 50 -5 0 -10
-9 -10 -20 0 -30 -34 -25 -47 8 -10 24 -11 22 -12 -30z"/>
<path d="M4910 1535 c0 -30 5 -55 10 -55 6 0 10 25 10 55 0 30 -4 55 -10 55
-5 0 -10 -25 -10 -55z"/>
<path d="M4842 1551 c-8 -5 -12 -21 -10 -37 3 -25 8 -29 37 -32 21 -2 31 0 27
7 -4 6 -13 8 -21 4 -8 -3 -15 0 -15 6 0 6 9 11 20 11 13 0 20 7 20 20 0 11 -4
20 -9 20 -5 0 -15 2 -23 5 -7 3 -19 1 -26 -4z m38 -21 c0 -5 -4 -10 -10 -10
-5 0 -10 5 -10 10 0 6 5 10 10 10 6 0 10 -4 10 -10z"/>
<path d="M4968 1552 c-15 -3 -18 -14 -18 -58 0 -30 5 -54 10 -54 6 0 10 9 10
19 0 13 8 21 23 23 17 2 23 11 25 34 3 33 -13 44 -50 36z m30 -34 c-5 -32 -28
-35 -28 -4 0 17 5 26 16 26 10 0 14 -7 12 -22z"/>
<path d="M4955 1020 c3 -5 11 -10 16 -10 6 0 7 5 4 10 -3 6 -11 10 -16 10 -6
0 -7 -4 -4 -10z"/>
</g>
</svg>
